<svg width="124" height="124" viewBox="0 0 124 124" fill="none" xmlns="http://www.w3.org/2000/svg">
<path d="M34.0729 85.25H33.7397C32.6161 85.2467 31.5031 85.4664 30.4651 85.8965C29.4271 86.3265 28.4847 86.9583 27.6927 87.7552L27.125 88.3229L26.5573 87.7552C25.7653 86.9583 24.823 86.3265 23.785 85.8965C22.747 85.4664 21.634 85.2467 20.5104 85.25H20.1772C17.9092 85.2505 15.7342 86.1517 14.1305 87.7554C12.5267 89.3592 11.6256 91.5341 11.625 93.8021V94.1354C11.6217 95.2589 11.8415 96.372 12.2715 97.41C12.7015 98.448 13.3333 99.3903 14.1302 100.182L25.7552 111.807C26.1186 112.171 26.6113 112.375 27.125 112.375C27.6388 112.375 28.1315 112.171 28.4948 111.807L40.1199 100.182C40.9168 99.3903 41.5486 98.448 41.9786 97.41C42.4086 96.372 42.6284 95.2589 42.625 94.1354V93.8021C42.6245 91.5341 41.7233 89.3592 40.1196 87.7554C38.5159 86.1517 36.3409 85.2505 34.0729 85.25ZM38.75 94.1354C38.7463 95.3751 38.2541 96.5634 37.3802 97.4427L27.125 107.698L16.8698 97.4427C15.996 96.5634 15.5038 95.3751 15.5 94.1354V93.8021C15.5 92.5617 15.9928 91.372 16.8699 90.4949C17.7471 89.6178 18.9367 89.125 20.1772 89.125H20.5104C21.7501 89.1288 22.9384 89.6209 23.8177 90.4948L25.7552 92.4323C26.1186 92.7955 26.6113 92.9996 27.125 92.9996C27.6388 92.9996 28.1315 92.7955 28.4948 92.4323L30.4323 90.4948C31.3117 89.6209 32.5 89.1288 33.7397 89.125H34.0729C35.3134 89.125 36.503 89.6178 37.3801 90.4949C38.2573 91.372 38.75 92.5617 38.75 93.8021V94.1354Z" fill="#E8DEDE"/>
<path d="M96.875 71.6875C90.8672 71.6865 85.059 73.8442 80.509 77.7674L76.9924 74.2528C79.8263 70.7982 81.3751 66.4682 81.3751 62C81.3751 57.5318 79.8263 53.2018 76.9924 49.7472L80.509 46.2326C85.4681 50.4828 91.8807 52.647 98.401 52.2709C104.921 51.8947 111.043 49.0077 115.48 44.2155C119.918 39.4232 122.326 33.0985 122.201 26.5685C122.076 20.0385 119.426 13.8109 114.807 9.19264C110.189 4.57438 103.962 1.92448 97.4316 1.79905C90.9016 1.67362 84.5768 4.08241 79.7846 8.51992C74.9924 12.9574 72.1053 19.0787 71.7292 25.599C71.3531 32.1194 73.5172 38.532 77.7674 43.4911L74.2528 47.0076C70.7983 44.1737 66.4682 42.6249 62 42.6249C57.5319 42.6249 53.2018 44.1737 49.7473 47.0076L46.2327 43.4911C50.4829 38.532 52.647 32.1194 52.2709 25.599C51.8948 19.0787 49.0077 12.9574 44.2155 8.51992C39.4233 4.08241 33.0985 1.67362 26.5685 1.79905C20.0385 1.92448 13.8109 4.57438 9.19268 9.19264C4.57442 13.8109 1.92453 20.0385 1.7991 26.5685C1.67367 33.0985 4.08246 39.4232 8.51996 44.2155C12.9575 49.0077 19.0787 51.8947 25.5991 52.2709C32.1194 52.647 38.532 50.4828 43.4911 46.2326L47.0077 49.7472C44.1738 53.2018 42.6249 57.5318 42.6249 62C42.6249 66.4682 44.1738 70.7982 47.0077 74.2528L43.4911 77.7674C38.532 73.5172 32.1194 71.353 25.5991 71.7291C19.0787 72.1052 12.9575 74.9923 8.51996 79.7846C4.08246 84.5768 1.67367 90.9015 1.7991 97.4315C1.92453 103.962 4.57442 110.189 9.19268 114.807C13.8109 119.426 20.0385 122.076 26.5685 122.201C33.0985 122.326 39.4233 119.918 44.2155 115.48C49.0077 111.043 51.8948 104.921 52.2709 98.401C52.647 91.8806 50.4829 85.468 46.2327 80.5089L49.7473 76.9924C53.2018 79.8263 57.5319 81.3751 62 81.3751C66.4682 81.3751 70.7983 79.8263 74.2528 76.9924L77.7674 80.5089C74.0412 84.8721 71.9181 90.3777 71.7501 96.113C71.5821 101.848 73.3793 107.469 76.8437 112.043C80.3081 116.616 85.2316 119.869 90.798 121.261C96.3643 122.652 102.239 122.1 107.449 119.695C112.658 117.29 116.889 113.177 119.44 108.037C121.991 102.898 122.709 97.041 121.475 91.4376C120.241 85.8341 117.129 80.8207 112.654 77.2286C108.18 73.6365 102.613 71.6814 96.875 71.6875ZM96.875 5.8125C101.09 5.8125 105.211 7.06246 108.716 9.4043C112.22 11.7462 114.952 15.0747 116.565 18.9691C118.178 22.8634 118.6 27.1486 117.778 31.2829C116.956 35.4171 114.926 39.2146 111.945 42.1952C108.965 45.1758 105.167 47.2056 101.033 48.028C96.8987 48.8503 92.6135 48.4283 88.7191 46.8152C84.8248 45.2021 81.4962 42.4704 79.1544 38.9656C76.8125 35.4608 75.5625 31.3402 75.5625 27.125C75.5692 21.4746 77.8168 16.0576 81.8122 12.0622C85.8076 8.06672 91.2247 5.81917 96.875 5.8125ZM5.81255 27.125C5.81255 22.9098 7.0625 18.7892 9.40435 15.2844C11.7462 11.7796 15.0748 9.04791 18.9691 7.43482C22.8635 5.82172 27.1487 5.39967 31.2829 6.22201C35.4171 7.04436 39.2147 9.07418 42.1953 12.0548C45.1759 15.0354 47.2057 18.8329 48.028 22.9671C48.8504 27.1014 48.4283 31.3866 46.8152 35.2809C45.2021 39.1753 42.4705 42.5038 38.9656 44.8457C35.4608 47.1875 31.3403 48.4375 27.125 48.4375C21.4747 48.4308 16.0576 46.1833 12.0622 42.1878C8.06677 38.1924 5.81921 32.7754 5.81255 27.125ZM62 46.5C64.991 46.4953 67.9192 47.3576 70.4304 48.9823C72.9416 50.6071 74.9281 52.9248 76.1496 55.655C77.3711 58.3851 77.7752 61.4108 77.3131 64.3658C76.8509 67.3209 75.5423 70.0787 73.5456 72.3056C73.3329 70.4625 72.6828 68.6971 71.6495 67.1562C70.6161 65.6153 69.2296 64.3437 67.6052 63.4473C68.6532 62.3497 69.3559 60.9686 69.6262 59.4753C69.8964 57.982 69.7223 56.4422 69.1254 55.047C68.5285 53.6517 67.5351 52.4624 66.2684 51.6266C65.0018 50.7908 63.5176 50.3453 62 50.3453C60.4825 50.3453 58.9983 50.7908 57.7317 51.6266C56.465 52.4624 55.4716 53.6517 54.8747 55.047C54.2778 56.4422 54.1037 57.982 54.3739 59.4753C54.6441 60.9686 55.3469 62.3497 56.3949 63.4473C54.7705 64.3437 53.3839 65.6153 52.3506 67.1562C51.3173 68.6971 50.6672 70.4625 50.4545 72.3056C48.4578 70.0787 47.1492 67.3209 46.687 64.3658C46.2249 61.4108 46.629 58.3851 47.8505 55.655C49.072 52.9248 51.0585 50.6071 53.5697 48.9823C56.0809 47.3576 59.0091 46.4953 62 46.5ZM58.125 58.125C58.125 57.3586 58.3523 56.6094 58.7781 55.9722C59.2039 55.3349 59.8091 54.8383 60.5171 54.545C61.2252 54.2517 62.0043 54.1749 62.756 54.3245C63.5077 54.474 64.1982 54.843 64.7401 55.385C65.282 55.9269 65.6511 56.6173 65.8006 57.369C65.9501 58.1207 65.8734 58.8998 65.5801 59.6079C65.2868 60.316 64.7901 60.9212 64.1529 61.3469C63.5156 61.7727 62.7664 62 62 62C60.9723 62 59.9867 61.5917 59.26 60.865C58.5333 60.1383 58.125 59.1527 58.125 58.125ZM27.125 118.188C22.9098 118.188 18.7893 116.938 15.2845 114.596C11.7796 112.254 9.04796 108.925 7.43486 105.031C5.82177 101.137 5.39971 96.8514 6.22206 92.7171C7.04441 88.5829 9.07423 84.7854 12.0548 81.8048C15.0354 78.8242 18.833 76.7944 22.9672 75.972C27.1014 75.1497 31.3866 75.5717 35.281 77.1848C39.1753 78.7979 42.5039 81.5296 44.8457 85.0344C47.1876 88.5392 48.4375 92.6598 48.4375 96.875C48.4309 102.525 46.1833 107.942 42.1879 111.938C38.1925 115.933 32.7754 118.181 27.125 118.188ZM54.25 75.4036V73.625C54.25 71.5696 55.0666 69.5983 56.52 68.1449C57.9734 66.6915 59.9446 65.875 62 65.875C64.0555 65.875 66.0267 66.6915 67.4801 68.1449C68.9335 69.5983 69.75 71.5696 69.75 73.625V75.4036C67.398 76.7765 64.7234 77.4999 62 77.4999C59.2766 77.4999 56.6021 76.7765 54.25 75.4036ZM96.875 118.188C92.6598 118.188 88.5393 116.938 85.0345 114.596C81.5296 112.254 78.798 108.925 77.1849 105.031C75.5718 101.137 75.1497 96.8514 75.9721 92.7171C76.7944 88.5829 78.8242 84.7854 81.8048 81.8048C84.7854 78.8242 88.583 76.7944 92.7172 75.972C96.8514 75.1497 101.137 75.5717 105.031 77.1848C108.925 78.7979 112.254 81.5296 114.596 85.0344C116.938 88.5392 118.188 92.6598 118.188 96.875C118.181 102.525 115.933 107.942 111.938 111.938C107.942 115.933 102.525 118.181 96.875 118.188Z" fill="#E8DEDE"/>
<path d="M44.5625 32.9375V27.125C44.5625 25.5834 43.9501 24.105 42.8601 23.0149C41.77 21.9249 40.2916 21.3125 38.75 21.3125H34.875V19.375C34.8719 16.8067 33.8503 14.3444 32.0342 12.5283C30.2181 10.7122 27.7558 9.69058 25.1875 9.6875C24.6736 9.6875 24.1808 9.89163 23.8175 10.255C23.4541 10.6183 23.25 11.1111 23.25 11.625V20.2759L21.3125 21.5682V21.3125C21.3125 20.7986 21.1084 20.3058 20.745 19.9425C20.3817 19.5791 19.8889 19.375 19.375 19.375H11.625C11.1111 19.375 10.6183 19.5791 10.255 19.9425C9.89163 20.3058 9.6875 20.7986 9.6875 21.3125V36.8125C9.6875 37.3264 9.89163 37.8192 10.255 38.1825C10.6183 38.5459 11.1111 38.75 11.625 38.75H19.375C19.8889 38.75 20.3817 38.5459 20.745 38.1825C21.1084 37.8192 21.3125 37.3264 21.3125 36.8125V36.5567L24.1122 38.4245C24.4309 38.6362 24.8049 38.7494 25.1875 38.75H38.75C40.2916 38.75 41.77 38.1376 42.8601 37.0476C43.9501 35.9575 44.5625 34.4791 44.5625 32.9375ZM17.4375 34.875H13.5625V23.25H17.4375V34.875ZM40.6875 32.9375C40.6875 33.4514 40.4834 33.9442 40.12 34.3075C39.7567 34.6709 39.2639 34.875 38.75 34.875H25.7688L21.3125 31.9009V26.2241L26.2628 22.9303C26.5289 22.7528 26.7469 22.5121 26.8974 22.2298C27.0478 21.9475 27.126 21.6324 27.125 21.3125V13.8938C28.2575 14.296 29.2378 15.0387 29.9316 16.02C30.6253 17.0013 30.9985 18.1732 31 19.375V23.25C31 23.7639 31.2041 24.2567 31.5675 24.62C31.9308 24.9834 32.4236 25.1875 32.9375 25.1875H38.75C39.2639 25.1875 39.7567 25.3916 40.12 25.755C40.4834 26.1183 40.6875 26.6111 40.6875 27.125V32.9375Z" fill="#E8DEDE"/>
<path d="M83.3125 36.8125H98.8125C99.3264 36.8125 99.8192 36.6084 100.183 36.245C100.546 35.8817 100.75 35.3889 100.75 34.875V33.6892L109.825 36.7137C110.023 36.779 110.229 36.8123 110.438 36.8125C110.951 36.8125 111.444 36.6084 111.808 36.245C112.171 35.8817 112.375 35.3889 112.375 34.875V19.375C112.375 19.068 112.302 18.7654 112.162 18.4921C112.023 18.2188 111.82 17.9826 111.571 17.803C111.322 17.6235 111.034 17.5056 110.73 17.4593C110.427 17.4129 110.117 17.4393 109.825 17.5363L100.75 20.5607V19.375C100.75 18.8611 100.546 18.3683 100.183 18.005C99.8192 17.6416 99.3264 17.4375 98.8125 17.4375H83.3125C82.7986 17.4375 82.3058 17.6416 81.9425 18.005C81.5791 18.3683 81.375 18.8611 81.375 19.375V34.875C81.375 35.3889 81.5791 35.8817 81.9425 36.245C82.3058 36.6084 82.7986 36.8125 83.3125 36.8125ZM108.5 22.0623V32.1877L100.75 29.6031V24.6469L108.5 22.0623ZM85.25 21.3125H96.875V32.9375H85.25V21.3125Z" fill="#E8DEDE"/>
<path d="M79.4375 89.125V104.625C79.4375 105.139 79.6416 105.632 80.005 105.995C80.3683 106.358 80.8611 106.562 81.375 106.562H92.1979L95.5052 109.87C95.8685 110.233 96.3612 110.437 96.875 110.437C97.3888 110.437 97.8815 110.233 98.2448 109.87L101.552 106.562H112.375C112.889 106.562 113.382 106.358 113.745 105.995C114.108 105.632 114.312 105.139 114.312 104.625V89.125C114.312 88.6111 114.108 88.1183 113.745 87.755C113.382 87.3916 112.889 87.1875 112.375 87.1875H81.375C80.8611 87.1875 80.3683 87.3916 80.005 87.755C79.6416 88.1183 79.4375 88.6111 79.4375 89.125ZM83.3125 91.0625H110.438V102.688H100.75C100.236 102.688 99.7435 102.892 99.3802 103.255L96.875 105.76L94.3698 103.255C94.0065 102.892 93.5138 102.688 93 102.688H83.3125V91.0625Z" fill="#E8DEDE"/>
<path d="M91.0625 94.9375H87.1875V98.8125H91.0625V94.9375Z" fill="#E8DEDE"/>
<path d="M106.562 94.9375H102.688V98.8125H106.562V94.9375Z" fill="#E8DEDE"/>
<path d="M98.8125 94.9375H94.9375V98.8125H98.8125V94.9375Z" fill="#E8DEDE"/>
</svg>
