<svg width="15" height="16" viewBox="0 0 15 16" fill="none" xmlns="http://www.w3.org/2000/svg">
<path d="M10.4997 0C9.64666 0.0589997 8.64967 0.604996 8.06867 1.31599C7.53867 1.96099 7.10268 2.91898 7.27267 3.84998C8.20467 3.87898 9.16766 3.31998 9.72566 2.59698C10.2477 1.92399 10.6427 0.971994 10.4997 0Z" fill="black"/>
<path d="M13.8705 5.36796C13.0515 4.34096 11.9006 3.74496 10.8136 3.74496C9.37857 3.74496 8.77157 4.43196 7.77458 4.43196C6.74658 4.43196 5.96559 3.74696 4.72459 3.74696C3.5056 3.74696 2.20761 4.49196 1.38461 5.76595C0.22762 7.55994 0.425619 10.9329 2.30061 13.8059C2.9716 14.8339 3.8676 15.9899 5.03959 15.9999C6.08259 16.0099 6.37658 15.3309 7.78958 15.3239C9.20257 15.3159 9.47057 16.0089 10.5116 15.9979C11.6846 15.9889 12.6295 14.7079 13.3005 13.6799C13.7815 12.9429 13.9605 12.5719 14.3335 11.7399C11.6206 10.7069 11.1856 6.84895 13.8705 5.36796Z" fill="black"/>
</svg>
