<svg width="190" height="190" viewBox="0 0 190 190" fill="none" xmlns="http://www.w3.org/2000/svg">
<g clip-path="url(#clip0_522_1579)">
<path d="M151.596 159.681H139.468V147.553C139.468 146.437 138.563 145.532 137.447 145.532C136.33 145.532 135.426 146.437 135.426 147.553V159.681H123.298C122.181 159.681 121.277 160.586 121.277 161.702C121.277 162.818 122.181 163.724 123.298 163.724H135.426V175.851C135.426 176.967 136.33 177.872 137.447 177.872C138.563 177.872 139.468 176.967 139.468 175.851V163.724H151.596C152.712 163.724 153.617 162.818 153.617 161.702C153.617 160.586 152.712 159.681 151.596 159.681Z" fill="#E9CFC4"/>
<path d="M28.2763 146.139C29.7275 146.139 30.904 144.962 30.904 143.511C30.904 142.06 29.7275 140.883 28.2763 140.883C26.8251 140.883 25.6487 142.06 25.6487 143.511C25.6487 144.962 26.8251 146.139 28.2763 146.139Z" fill="#E8DEDE"/>
<path d="M161.607 140.075C163.058 140.075 164.235 138.898 164.235 137.447C164.235 135.996 163.058 134.82 161.607 134.82C160.156 134.82 158.979 135.996 158.979 137.447C158.979 138.898 160.156 140.075 161.607 140.075Z" fill="#E8DEDE"/>
<path d="M171.53 86.2085C166.072 80.213 158.776 76.3148 150.829 75.092V70.3784C156.287 66.6564 160.15 60.758 161.153 53.9394C177.865 47.0518 170.845 22.9717 161.469 13.0727C152.986 4.11853 141.139 -0.0869083 128.968 0.00121881C123.149 0.00121881 118.305 4.26043 117.399 9.82213C106.121 11.2047 101.949 23.3432 102.093 33.285C96.8905 32.037 91.6029 32.2327 86.3015 32.2327C83.6234 11.8996 63.6052 -0.113589 44.4189 0.00121881C38.5993 0.00121881 33.7564 4.26043 32.85 9.82213C14.6736 12.05 9.96811 49.8868 28.858 54.1064C29.8921 60.8093 33.6953 66.6067 39.0549 70.302V75.1045C21.9675 77.7742 9.29907 92.4255 9.29907 109.908V143.511C9.29907 144.627 10.2038 145.533 11.3203 145.533C12.4369 145.533 13.3416 144.627 13.3416 143.511V121.696L26.2555 121.669V133.001C26.2555 134.117 27.1602 135.022 28.2767 135.022C29.3933 135.022 30.298 134.117 30.298 133.001V108.985C30.298 107.868 29.3933 106.963 28.2767 106.963C27.1602 106.963 26.2555 107.868 26.2555 108.985V117.626L13.3416 117.653V109.908C13.3416 94.6477 24.2483 81.8296 39.0549 79.2089C38.8289 86.9709 44.6724 93.823 52.6673 93.823C59.3698 93.823 64.9525 88.9578 66.0715 82.5783C68.1643 84.1848 70.2838 84.8575 71.7072 85.1385C72.7486 91.6235 76.4511 97.2276 81.6518 100.802V106.096C65.0366 108.721 52.7199 122.981 52.7199 140.011V172.727C52.7199 173.843 53.6246 174.748 54.7411 174.748C55.8577 174.748 56.7624 173.843 56.7624 172.727V151.541L69.2069 151.514V172.727C69.2069 173.843 70.1116 174.748 71.2282 174.748C72.3447 174.748 73.2494 173.843 73.2494 172.727V139.111C73.2494 137.995 72.3447 137.09 71.2282 137.09C70.1116 137.09 69.2069 137.995 69.2069 139.111V147.471L56.7624 147.498V140.011C56.7624 125.202 67.3154 112.761 81.6518 110.188C81.4683 115.305 83.9496 120.186 88.4776 122.718L83.6403 150.959C83.5409 151.541 83.7002 152.137 84.0769 152.591L93.4447 163.889C94.2411 164.849 95.7602 164.849 96.5562 163.889L105.924 152.591C106.293 152.146 106.454 151.565 106.366 150.994L101.97 122.387C106.195 119.745 108.388 115.066 108.235 110.16C120.459 112.307 130.095 121.658 132.601 133.829C119.299 136.136 109.149 147.753 109.149 161.704C109.149 177.307 121.844 190.001 137.447 190.001C153.051 190.001 165.745 177.307 165.745 161.704C165.745 145.966 152.354 132.982 136.638 133.426C133.901 119.404 122.353 108.276 108.236 106.066V100.815C109.343 100.054 110.396 99.1992 111.376 98.2427C115.141 94.5676 117.522 89.8302 118.24 84.6938C119.44 84.0494 121.504 82.7368 123.611 80.4467C123.73 87.8425 129.786 93.8234 137.218 93.8234C144.723 93.8234 150.83 87.7236 150.83 80.2264V79.1911C165.702 81.7625 176.66 94.5883 176.66 109.909V117.659H163.629V109.398C163.629 108.282 162.725 107.377 161.608 107.377C160.492 107.377 159.587 108.282 159.587 109.398V127.747C159.587 128.863 160.492 129.768 161.608 129.768C162.725 129.768 163.629 128.863 163.629 127.747V121.701H176.66V143.513C176.66 144.629 177.565 145.534 178.681 145.534C179.798 145.534 180.703 144.629 180.703 143.513V109.909C180.702 101.121 177.445 92.7044 171.53 86.2085ZM137.447 137.447C150.821 137.447 161.702 148.328 161.702 161.702C161.702 175.077 150.821 185.957 137.447 185.957C124.072 185.957 113.192 175.077 113.192 161.702C113.192 148.328 124.072 137.447 137.447 137.447ZM111.054 17.2438C113.18 14.9687 115.884 13.8194 119.32 13.7313C120.416 13.703 121.289 12.8067 121.289 11.7104C121.289 7.48313 124.734 4.04415 128.968 4.04415C140.042 3.97624 150.802 7.69172 158.534 15.8532C165.736 23.456 172.831 41.9396 161.425 49.3019V35.1894C161.425 33.9888 160.432 33.327 159.399 33.1681L140.782 33.2199C133.992 32.8079 128.381 31.6744 123.087 27.513C119.128 24.4003 113.124 27.4148 113.124 32.3908V37.8575C110.91 36.498 108.573 35.3762 106.153 34.501C106.041 28.6029 106.856 21.7355 111.054 17.2438ZM28.5747 32.3904V49.8136C15.1725 44.3591 19.9871 14.1104 34.7706 13.7309C35.8662 13.7026 36.7397 12.8063 36.7397 11.71C36.7397 7.48272 40.1844 4.04375 44.4185 4.04375C61.5669 3.90751 79.8282 14.4213 82.2877 32.6931C80.1642 33.3145 78.2953 34.5353 76.8756 36.1596V35.189C76.8756 33.9884 75.8823 33.3266 74.8486 33.1677L56.232 33.2195C49.4418 32.8075 43.8312 31.674 38.5375 27.5126C34.5786 24.4003 28.5747 27.414 28.5747 32.3904ZM62.2368 80.2252C62.2368 85.4938 57.944 89.7797 52.6669 89.7797C47.3898 89.7797 43.097 85.4934 43.097 80.2252V72.5557C48.4813 74.9056 54.7217 75.191 60.298 73.3424C60.7718 75.115 61.4222 76.7066 62.2368 78.1247V80.2252ZM59.3185 65.0265C59.3169 66.5347 59.3981 67.9622 59.5525 69.3164C57.3651 70.1096 55.0767 70.5174 52.7251 70.5174C41.6373 70.5174 32.6172 61.4974 32.6172 50.4095V32.3904C32.6172 30.6674 34.6659 29.6107 36.0396 30.6905C42.5359 35.7974 49.498 36.8654 56.0537 37.2588C56.0958 37.2612 56.1366 37.2624 56.1803 37.2624L72.8335 37.2159V42.0298C62.677 44.1727 58.9943 55.8123 59.3185 65.0265ZM102.232 150.709L94.9998 159.431L87.7815 150.725L92.3346 124.144C94.2467 124.526 96.2352 124.481 98.1288 124.013L102.232 150.709ZM104.193 111.11C104.193 116.21 100.043 120.359 94.9432 120.359C89.8432 120.359 85.6939 116.21 85.6939 111.11V103.036C91.537 105.544 98.3471 105.541 104.193 103.041V111.11ZM114.424 81.9408C114.131 92.5678 105.579 100.888 94.9436 100.888C84.1938 100.888 75.4482 92.1425 75.4482 81.3926V62.0435C75.4482 61.0074 76.6876 60.4499 77.4613 61.1452C87.6008 70.2502 101.289 73.6597 114.424 70.4451V81.9408ZM125.156 69.4308C125.14 69.4797 125.128 69.5286 125.115 69.578C124.59 71.5159 123.773 73.3662 122.668 75.0778C121.288 77.2139 119.748 78.71 118.466 79.7126V67.7572C118.466 65.8188 116.563 65.6454 115.168 66.0585C102.823 69.6964 89.7373 66.7353 80.1621 58.1372C76.8453 55.1583 71.4052 57.5854 71.4052 62.0431V80.8898C66.7854 79.373 64.5063 74.7334 63.7556 70.2393C62.0553 61.0284 64.3935 46.0084 76.1188 45.706C77.2143 45.6777 78.0879 44.7815 78.0879 43.6852C78.0879 39.599 81.4125 36.2744 85.4987 36.2744H93.2175C99.5093 36.2744 105.668 38.0167 111.029 41.313C116.718 44.8118 120.232 50.9548 120.428 57.7451C120.459 58.8382 121.355 59.7081 122.448 59.7081C124.174 59.7081 125.625 61.0701 125.753 62.8083C125.92 65.0798 125.713 67.3077 125.156 69.4308ZM146.786 80.2252C146.786 85.4938 142.493 89.7797 137.216 89.7797C131.939 89.7797 127.646 85.4934 127.646 80.2252V74.3829C127.885 73.8691 128.111 73.3509 128.311 72.8229C134.206 75.1777 140.95 75.1178 146.786 72.6042V80.2252ZM137.275 70.5174C134.536 70.5174 131.9 69.9733 129.417 68.9118C129.816 66.8351 129.944 64.6901 129.785 62.5132C129.551 59.3346 127.302 56.726 124.361 55.9223C123.795 50.1698 121.225 44.9044 117.167 40.9945V32.3904C117.167 30.6674 119.216 29.6107 120.589 30.6905C127.086 35.7974 134.048 36.8654 140.603 37.2588C140.646 37.2612 140.693 37.2624 140.73 37.2624L157.383 37.2159V50.4099C157.383 61.4974 148.363 70.5174 137.275 70.5174Z" fill="#E8DEDE"/>
</g>
<defs>
<clipPath id="clip0_522_1579">
<rect width="190" height="190" fill="white"/>
</clipPath>
</defs>
</svg>
