<svg width="122" height="122" viewBox="0 0 122 122" fill="none" xmlns="http://www.w3.org/2000/svg">
<path d="M22.25 66.8125H64.875C65.3889 66.8125 65.8817 66.6084 66.245 66.245C66.6084 65.8817 66.8125 65.3889 66.8125 64.875V57.125C66.8125 56.6111 66.6084 56.1183 66.245 55.755C65.8817 55.3916 65.3889 55.1875 64.875 55.1875H22.25C21.7361 55.1875 21.2433 55.3916 20.88 55.755C20.5166 56.1183 20.3125 56.6111 20.3125 57.125V64.875C20.3125 65.3889 20.5166 65.8817 20.88 66.245C21.2433 66.6084 21.7361 66.8125 22.25 66.8125ZM24.1875 59.0625H62.9375V62.9375H24.1875V59.0625Z" fill="#DDD3D3"/>
<path d="M12.5625 70.6875H74.5625V74.5625H12.5625V70.6875Z" fill="#DDD3D3"/>
<path d="M12.5625 78.4375H74.5625V82.3125H12.5625V78.4375Z" fill="#DDD3D3"/>
<path d="M12.5625 86.1875H74.5625V90.0625H12.5625V86.1875Z" fill="#DDD3D3"/>
<path d="M72.625 93.9375H12.5625C12.0486 93.9375 11.5558 94.1416 11.1925 94.505C10.8291 94.8683 10.625 95.3611 10.625 95.875V111.375C10.625 111.889 10.8291 112.382 11.1925 112.745C11.5558 113.108 12.0486 113.312 12.5625 113.312H72.625C73.1389 113.312 73.6317 113.108 73.995 112.745C74.3584 112.382 74.5625 111.889 74.5625 111.375V95.875C74.5625 95.3611 74.3584 94.8683 73.995 94.505C73.6317 94.1416 73.1389 93.9375 72.625 93.9375ZM70.6875 109.438H14.5V97.8125H70.6875V109.438Z" fill="#DDD3D3"/>
<path d="M113.312 83.3219V18.375C113.312 16.3196 112.496 14.3483 111.043 12.8949C109.589 11.4415 107.618 10.625 105.562 10.625H86.1875V8.6875C86.1875 6.63207 85.371 4.66083 83.9176 3.20742C82.4642 1.75402 80.4929 0.9375 78.4375 0.9375H8.6875C6.63207 0.9375 4.66083 1.75402 3.20742 3.20742C1.75402 4.66083 0.9375 6.63207 0.9375 8.6875V113.312C0.9375 115.368 1.75402 117.339 3.20742 118.793C4.66083 120.246 6.63207 121.062 8.6875 121.062H78.4375C80.0558 121.057 81.6315 120.544 82.9429 119.596C84.2543 118.648 85.2353 117.312 85.7477 115.777C87.8715 117.638 90.3444 119.059 93.0225 119.955C95.7005 120.852 98.5301 121.207 101.347 120.999C104.163 120.792 106.91 120.026 109.428 118.747C111.946 117.468 114.184 115.7 116.012 113.548C117.84 111.395 119.222 108.901 120.077 106.209C120.932 103.517 121.242 100.683 120.991 97.8697C120.74 95.0568 119.932 92.3219 118.613 89.8244C117.295 87.3268 115.493 85.1164 113.312 83.3219ZM105.562 14.5C106.59 14.5 107.576 14.9083 108.303 15.635C109.029 16.3617 109.438 17.3473 109.438 18.375V80.7896C105.74 78.8867 101.566 78.1122 97.432 78.5624C93.2984 79.0126 89.3882 80.6677 86.1875 83.3219V72.625H103.625C104.139 72.625 104.632 72.4209 104.995 72.0575C105.358 71.6942 105.562 71.2014 105.562 70.6875V55.1875C105.562 54.6736 105.358 54.1808 104.995 53.8175C104.632 53.4541 104.139 53.25 103.625 53.25H86.1875V49.375H105.562V45.5H86.1875V41.625H105.562V37.75H86.1875V33.875H105.562V30H86.1875V26.125H105.562V22.25H86.1875V14.5H105.562ZM86.1875 68.75V57.125H101.688V68.75H86.1875ZM78.4375 117.188H8.6875C7.65979 117.188 6.67416 116.779 5.94746 116.053C5.22076 115.326 4.8125 114.34 4.8125 113.312V8.6875C4.8125 7.65979 5.22076 6.67416 5.94746 5.94746C6.67416 5.22076 7.65979 4.8125 8.6875 4.8125H78.4375C79.4652 4.8125 80.4508 5.22076 81.1775 5.94746C81.9042 6.67416 82.3125 7.65979 82.3125 8.6875V87.5438C79.791 91.1182 78.4374 95.3854 78.4374 99.7597C78.4374 104.134 79.791 108.401 82.3125 111.976V113.312C82.3125 114.34 81.9042 115.326 81.1775 116.053C80.4508 116.779 79.4652 117.188 78.4375 117.188ZM99.75 117.188C96.3012 117.188 92.9298 116.165 90.0622 114.249C87.1947 112.333 84.9597 109.609 83.6399 106.423C82.32 103.237 81.9747 99.7307 82.6476 96.3481C83.3204 92.9656 84.9811 89.8585 87.4198 87.4198C89.8585 84.9811 92.9656 83.3204 96.3481 82.6476C99.7307 81.9747 103.237 82.32 106.423 83.6399C109.609 84.9597 112.333 87.1947 114.249 90.0622C116.165 92.9298 117.187 96.3012 117.188 99.75C117.182 104.373 115.344 108.805 112.075 112.075C108.805 115.344 104.373 117.182 99.75 117.188V117.188Z" fill="#DDD3D3"/>
<path d="M30 51.3125H57.125C57.6389 51.3125 58.1317 51.1084 58.495 50.745C58.8584 50.3817 59.0625 49.8889 59.0625 49.375V43.5625C59.0587 40.6725 58.2469 37.8411 56.719 35.3881C55.191 32.9351 53.0076 30.9581 50.4154 29.6803C52.3968 28.2344 53.87 26.1987 54.6242 23.8647C55.3785 21.5307 55.3752 19.018 54.6147 16.686C53.8543 14.354 52.3757 12.3223 50.3905 10.8816C48.4054 9.44087 46.0154 8.66501 43.5625 8.66501C41.1096 8.66501 38.7196 9.44087 36.7345 10.8816C34.7493 12.3223 33.2707 14.354 32.5103 16.686C31.7498 19.018 31.7465 21.5307 32.5008 23.8647C33.255 26.1987 34.7282 28.2344 36.7096 29.6803C34.1174 30.9581 31.934 32.9351 30.406 35.3881C28.8781 37.8411 28.0663 40.6725 28.0625 43.5625V49.375C28.0625 49.8889 28.2666 50.3817 28.63 50.745C28.9933 51.1084 29.4861 51.3125 30 51.3125ZM35.8125 20.3125C35.8125 18.7797 36.267 17.2813 37.1186 16.0068C37.9702 14.7324 39.1806 13.739 40.5967 13.1524C42.0128 12.5659 43.5711 12.4124 45.0744 12.7114C46.5778 13.0105 47.9587 13.7486 49.0426 14.8324C50.1264 15.9163 50.8646 17.2972 51.1636 18.8006C51.4626 20.3039 51.3091 21.8622 50.7226 23.2783C50.136 24.6944 49.1426 25.9048 47.8682 26.7564C46.5937 27.608 45.0953 28.0625 43.5625 28.0625C41.5071 28.0625 39.5358 27.246 38.0824 25.7926C36.629 24.3392 35.8125 22.3679 35.8125 20.3125ZM31.9375 43.5625C31.9375 40.4794 33.1623 37.5225 35.3424 35.3424C37.5225 33.1623 40.4794 31.9375 43.5625 31.9375C46.6456 31.9375 49.6025 33.1623 51.7826 35.3424C53.9627 37.5225 55.1875 40.4794 55.1875 43.5625V47.4375H31.9375V43.5625Z" fill="#DDD3D3"/>
<path d="M95.7802 104.665L91.4325 100.318L88.6929 103.057L94.5054 108.87C94.8686 109.233 95.3614 109.437 95.8752 109.438H95.9391C96.2044 109.428 96.4649 109.365 96.7048 109.251C96.9447 109.138 97.1588 108.976 97.3341 108.777L110.897 93.2768L107.979 90.7232L95.7802 104.665Z" fill="#DDD3D3"/>
</svg>
