<svg width="122" height="122" viewBox="0 0 122 122" fill="none" xmlns="http://www.w3.org/2000/svg">
<path d="M115.25 66.8125V61C115.25 60.4861 115.046 59.9933 114.683 59.63C114.319 59.2666 113.826 59.0625 113.312 59.0625H107.5V53.25C107.5 52.7361 107.296 52.2433 106.933 51.88C106.569 51.5166 106.076 51.3125 105.562 51.3125H93.9375V2.875C93.9375 2.36114 93.7334 1.86833 93.37 1.50498C93.0067 1.14163 92.5139 0.9375 92 0.9375H2.875C2.36114 0.9375 1.86833 1.14163 1.50498 1.50498C1.14163 1.86833 0.9375 2.36114 0.9375 2.875V119.125C0.9375 119.639 1.14163 120.132 1.50498 120.495C1.86833 120.858 2.36114 121.062 2.875 121.062H115.25C116.792 121.062 118.27 120.45 119.36 119.36C120.45 118.27 121.062 116.792 121.062 115.25V72.625C121.062 71.0834 120.45 69.605 119.36 68.5149C118.27 67.4249 116.792 66.8125 115.25 66.8125ZM111.375 66.8125H81.9812C81.2173 66.8101 80.4605 66.9594 79.7547 67.2517C79.0489 67.5441 78.4082 67.9737 77.8698 68.5156L72.3906 73.9948C72.2105 74.175 71.9966 74.3178 71.7612 74.4153C71.5258 74.5127 71.2736 74.5627 71.0188 74.5625H61V62.9375H111.375V66.8125ZM103.625 59.0625H59.0625C58.5486 59.0625 58.0558 59.2666 57.6925 59.63C57.3291 59.9933 57.125 60.4861 57.125 61V74.5625H53.25V55.1875H103.625V59.0625ZM4.8125 4.8125H90.0625V51.3125H51.3125C50.7986 51.3125 50.3058 51.5166 49.9425 51.88C49.5791 52.2433 49.375 52.7361 49.375 53.25V74.5625C47.8334 74.5625 46.355 75.1749 45.2649 76.2649C44.1749 77.355 43.5625 78.8334 43.5625 80.375V115.25C43.5689 115.912 43.6895 116.567 43.919 117.188H4.8125V4.8125ZM117.188 115.25C117.188 115.764 116.983 116.257 116.62 116.62C116.257 116.983 115.764 117.188 115.25 117.188H49.375C48.8611 117.188 48.3683 116.983 48.005 116.62C47.6416 116.257 47.4375 115.764 47.4375 115.25V80.375C47.4375 79.8611 47.6416 79.3683 48.005 79.005C48.3683 78.6416 48.8611 78.4375 49.375 78.4375H71.0188C71.7827 78.4399 72.5395 78.2906 73.2453 77.9983C73.9511 77.7059 74.5918 77.2763 75.1302 76.7344L80.6094 71.2552C80.7895 71.075 81.0034 70.9322 81.2388 70.8347C81.4742 70.7373 81.7264 70.6873 81.9812 70.6875H115.25C115.764 70.6875 116.257 70.8916 116.62 71.255C116.983 71.6183 117.188 72.1111 117.188 72.625V115.25Z" fill="#E8DEDE"/>
<path d="M30 20.3125V16.4375C30 14.3821 29.1835 12.4108 27.7301 10.9574C26.2767 9.50402 24.3054 8.6875 22.25 8.6875C20.1946 8.6875 18.2233 9.50402 16.7699 10.9574C15.3165 12.4108 14.5 14.3821 14.5 16.4375V20.3125C12.9584 20.3125 11.48 20.9249 10.3899 22.0149C9.29989 23.105 8.6875 24.5834 8.6875 26.125V33.875C8.6875 35.4166 9.29989 36.895 10.3899 37.9851C11.48 39.0751 12.9584 39.6875 14.5 39.6875H30C31.5416 39.6875 33.02 39.0751 34.1101 37.9851C35.2001 36.895 35.8125 35.4166 35.8125 33.875V26.125C35.8125 24.5834 35.2001 23.105 34.1101 22.0149C33.02 20.9249 31.5416 20.3125 30 20.3125ZM18.375 16.4375C18.375 15.4098 18.7833 14.4242 19.51 13.6975C20.2367 12.9708 21.2223 12.5625 22.25 12.5625C23.2777 12.5625 24.2633 12.9708 24.99 13.6975C25.7167 14.4242 26.125 15.4098 26.125 16.4375V20.3125H18.375V16.4375ZM31.9375 33.875C31.9375 34.3889 31.7334 34.8817 31.37 35.245C31.0067 35.6084 30.5139 35.8125 30 35.8125H14.5C13.9861 35.8125 13.4933 35.6084 13.13 35.245C12.7666 34.8817 12.5625 34.3889 12.5625 33.875V26.125C12.5625 25.6111 12.7666 25.1183 13.13 24.755C13.4933 24.3916 13.9861 24.1875 14.5 24.1875H30C30.5139 24.1875 31.0067 24.3916 31.37 24.755C31.7334 25.1183 31.9375 25.6111 31.9375 26.125V33.875Z" fill="#E8DEDE"/>
<path d="M33.875 43.5625H10.625C10.1111 43.5625 9.61833 43.7666 9.25498 44.13C8.89163 44.4933 8.6875 44.9861 8.6875 45.5V61C8.6875 61.5139 8.89163 62.0067 9.25498 62.37C9.61833 62.7334 10.1111 62.9375 10.625 62.9375H33.875C34.3889 62.9375 34.8817 62.7334 35.245 62.37C35.6084 62.0067 35.8125 61.5139 35.8125 61V45.5C35.8125 44.9861 35.6084 44.4933 35.245 44.13C34.8817 43.7666 34.3889 43.5625 33.875 43.5625ZM31.9375 59.0625H12.5625V47.4375H31.9375V59.0625Z" fill="#E8DEDE"/>
<path d="M8.6875 66.8125H35.8125V70.6875H8.6875V66.8125Z" fill="#E8DEDE"/>
<path d="M8.6875 82.3125H35.8125V86.1875H8.6875V82.3125Z" fill="#E8DEDE"/>
<path d="M8.6875 74.5625H35.8125V78.4375H8.6875V74.5625Z" fill="#E8DEDE"/>
<path d="M8.6875 90.0625H35.8125V93.9375H8.6875V90.0625Z" fill="#E8DEDE"/>
<path d="M8.6875 97.8125H35.8125V101.688H8.6875V97.8125Z" fill="#E8DEDE"/>
<path d="M8.6875 105.562H35.8125V109.438H8.6875V105.562Z" fill="#E8DEDE"/>
<path d="M86.1875 43.5625H84.25V14.5C84.25 13.9861 84.0459 13.4933 83.6825 13.13C83.3192 12.7666 82.8264 12.5625 82.3125 12.5625H74.5625C74.0486 12.5625 73.5558 12.7666 73.1925 13.13C72.8291 13.4933 72.625 13.9861 72.625 14.5V43.5625H68.75V18.375C68.75 17.8611 68.5459 17.3683 68.1825 17.005C67.8192 16.6416 67.3264 16.4375 66.8125 16.4375H59.0625C58.5486 16.4375 58.0558 16.6416 57.6925 17.005C57.3291 17.3683 57.125 17.8611 57.125 18.375V43.5625H53.25V28.0625C53.25 27.5486 53.0459 27.0558 52.6825 26.6925C52.3192 26.3291 51.8264 26.125 51.3125 26.125H43.5625C43.0486 26.125 42.5558 26.3291 42.1925 26.6925C41.8291 27.0558 41.625 27.5486 41.625 28.0625V43.5625H39.6875V47.4375H86.1875V43.5625ZM76.5 16.4375H80.375V43.5625H76.5V16.4375ZM61 20.3125H64.875V43.5625H61V20.3125ZM45.5 30H49.375V43.5625H45.5V30Z" fill="#E8DEDE"/>
<path d="M20.3125 28.0625H24.1875V31.9375H20.3125V28.0625Z" fill="#E8DEDE"/>
<path d="M103.625 88.125H61C60.4861 88.125 59.9933 88.3291 59.63 88.6925C59.2666 89.0558 59.0625 89.5486 59.0625 90.0625V105.562C59.0625 106.076 59.2666 106.569 59.63 106.933C59.9933 107.296 60.4861 107.5 61 107.5H103.625C104.139 107.5 104.632 107.296 104.995 106.933C105.358 106.569 105.562 106.076 105.562 105.562V90.0625C105.562 89.5486 105.358 89.0558 104.995 88.6925C104.632 88.3291 104.139 88.125 103.625 88.125ZM101.688 103.625H62.9375V92H101.688V103.625Z" fill="#E8DEDE"/>
</svg>
