<svg width="16" height="16" viewBox="0 0 16 16" fill="none" xmlns="http://www.w3.org/2000/svg">
<path d="M13.1525 0H2.84746C2.09249 0.000717996 1.36864 0.300948 0.834794 0.834794C0.300948 1.36864 0.000717996 2.09249 0 2.84746L0 13.1525C0.000717996 13.9075 0.300948 14.6314 0.834794 15.1652C1.36864 15.6991 2.09249 15.9993 2.84746 16H13.1525C13.9075 15.9993 14.6314 15.6991 15.1652 15.1652C15.6991 14.6314 15.9993 13.9075 16 13.1525V2.84746C15.9993 2.09249 15.6991 1.36864 15.1652 0.834794C14.6314 0.300948 13.9075 0.000717996 13.1525 0V0ZM2.84746 1.35593H13.1525C13.5479 1.35665 13.9269 1.51402 14.2064 1.79358C14.486 2.07314 14.6434 2.4521 14.6441 2.84746V8.77559L11.8915 6.02305C11.762 5.90001 11.5902 5.83141 11.4115 5.83141C11.2329 5.83141 11.0611 5.90001 10.9315 6.02305L7.44136 9.51322L5.67864 7.75322C5.61585 7.68976 5.5411 7.63938 5.4587 7.60499C5.37631 7.57061 5.28792 7.55291 5.19864 7.55291C5.10937 7.55291 5.02097 7.57061 4.93858 7.60499C4.85619 7.63938 4.78144 7.68976 4.71864 7.75322L1.35593 11.1186V2.84746C1.35665 2.4521 1.51402 2.07314 1.79358 1.79358C2.07314 1.51402 2.4521 1.35665 2.84746 1.35593V1.35593Z" fill="#4D4646"/>
<path d="M7.39822 5.92813C7.99731 5.92813 8.48297 5.44247 8.48297 4.84338C8.48297 4.24429 7.99731 3.75864 7.39822 3.75864C6.79913 3.75864 6.31348 4.24429 6.31348 4.84338C6.31348 5.44247 6.79913 5.92813 7.39822 5.92813Z" fill="#4D4646"/>
</svg>
