<svg width="124" height="124" viewBox="0 0 124 124" fill="none" xmlns="http://www.w3.org/2000/svg">
<path d="M116.25 40.6875H114.312V23.25C114.312 21.7084 113.7 20.23 112.61 19.1399C111.52 18.0499 110.042 17.4375 108.5 17.4375H73.625C73.3242 17.4375 73.0276 17.3675 72.7585 17.233C72.4895 17.0984 72.2555 16.9031 72.075 16.6625L62.775 4.2625C62.2321 3.54216 61.5298 2.95737 60.723 2.55399C59.9162 2.15061 59.027 1.93959 58.125 1.9375H34.875C33.3334 1.9375 31.855 2.54989 30.7649 3.63994C29.6749 4.73 29.0625 6.20843 29.0625 7.75V13.5625H15.5C13.9584 13.5625 12.48 14.1749 11.3899 15.2649C10.2999 16.355 9.6875 17.8334 9.6875 19.375V52.3125H7.75C6.20843 52.3125 4.73 52.9249 3.63994 54.0149C2.54989 55.105 1.9375 56.5834 1.9375 58.125V112.375C1.94058 114.943 2.96221 117.406 4.7783 119.222C6.59439 121.038 9.05666 122.059 11.625 122.062H93C95.5683 122.059 98.0306 121.038 99.8467 119.222C101.663 117.406 102.684 114.943 102.688 112.375V110.438H112.375C114.943 110.434 117.406 109.413 119.222 107.597C121.038 105.781 122.059 103.318 122.062 100.75V46.5C122.062 44.9584 121.45 43.48 120.36 42.3899C119.27 41.2999 117.792 40.6875 116.25 40.6875ZM32.9375 7.75C32.9375 7.23614 33.1416 6.74333 33.505 6.37998C33.8683 6.01663 34.3611 5.8125 34.875 5.8125H58.125C58.4258 5.8125 58.7224 5.88253 58.9915 6.01705C59.2605 6.15156 59.4945 6.34687 59.675 6.5875L68.975 18.9875C69.5179 19.7078 70.2202 20.2926 71.027 20.696C71.8338 21.0994 72.723 21.3104 73.625 21.3125H108.5C109.014 21.3125 109.507 21.5166 109.87 21.88C110.233 22.2433 110.438 22.7361 110.438 23.25V40.6875H94.9375V34.875C94.9375 33.3334 94.3251 31.855 93.2351 30.7649C92.145 29.6749 90.6666 29.0625 89.125 29.0625H54.25C53.9492 29.0625 53.6526 28.9925 53.3835 28.858C53.1145 28.7234 52.8805 28.5281 52.7 28.2875L43.4 15.8875C42.8571 15.1672 42.1548 14.5824 41.348 14.179C40.5412 13.7756 39.652 13.5646 38.75 13.5625H32.9375V7.75ZM13.5625 19.375C13.5625 18.8611 13.7666 18.3683 14.13 18.005C14.4933 17.6416 14.9861 17.4375 15.5 17.4375H38.75C39.0508 17.4375 39.3474 17.5075 39.6165 17.642C39.8855 17.7766 40.1195 17.9719 40.3 18.2125L49.6 30.6125C50.1429 31.3328 50.8452 31.9176 51.652 32.321C52.4588 32.7244 53.348 32.9354 54.25 32.9375H89.125C89.6389 32.9375 90.1317 33.1416 90.495 33.505C90.8584 33.8683 91.0625 34.3611 91.0625 34.875V52.3125H87.1875V38.75C87.1875 38.2361 86.9834 37.7433 86.62 37.38C86.2567 37.0166 85.7639 36.8125 85.25 36.8125H19.375C18.8611 36.8125 18.3683 37.0166 18.005 37.38C17.6416 37.7433 17.4375 38.2361 17.4375 38.75V52.3125H13.5625V19.375ZM71.6875 52.3125H32.9375V48.4375H71.6875V52.3125ZM73.625 44.5625H31C30.4861 44.5625 29.9933 44.7666 29.63 45.13C29.2666 45.4933 29.0625 45.9861 29.0625 46.5V52.3125H21.3125V40.6875H83.3125V52.3125H75.5625V46.5C75.5625 45.9861 75.3584 45.4933 74.995 45.13C74.6317 44.7666 74.1389 44.5625 73.625 44.5625ZM98.8125 112.375C98.8125 113.917 98.2001 115.395 97.1101 116.485C96.02 117.575 94.5416 118.188 93 118.188H11.625C10.0834 118.188 8.605 117.575 7.51494 116.485C6.42489 115.395 5.8125 113.917 5.8125 112.375V58.125C5.8125 57.6111 6.01663 57.1183 6.37998 56.755C6.74333 56.3916 7.23614 56.1875 7.75 56.1875H96.875C97.3889 56.1875 97.8817 56.3916 98.245 56.755C98.6084 57.1183 98.8125 57.6111 98.8125 58.125V112.375ZM118.188 100.75C118.188 102.292 117.575 103.77 116.485 104.86C115.395 105.95 113.917 106.562 112.375 106.562H102.688V58.125C102.688 56.5834 102.075 55.105 100.985 54.0149C99.895 52.9249 98.4166 52.3125 96.875 52.3125H94.9375V44.5625H116.25C116.764 44.5625 117.257 44.7666 117.62 45.13C117.983 45.4933 118.188 45.9861 118.188 46.5V100.75Z" fill="#E8DEDE"/>
<path d="M52.3125 60.0625C47.7141 60.0625 43.2189 61.4261 39.3955 63.9808C35.5721 66.5356 32.592 70.1667 30.8323 74.4151C29.0726 78.6635 28.6121 83.3383 29.5093 87.8483C30.4064 92.3584 32.6207 96.5012 35.8723 99.7527C39.1238 103.004 43.2666 105.219 47.7767 106.116C52.2867 107.013 56.9615 106.552 61.2099 104.793C65.4583 103.033 69.0894 100.053 71.6442 96.2295C74.1989 92.4061 75.5625 87.9109 75.5625 83.3125C75.5558 77.1483 73.1042 71.2384 68.7454 66.8796C64.3866 62.5209 58.4767 60.0692 52.3125 60.0625ZM52.3125 102.688C48.4805 102.688 44.7345 101.551 41.5483 99.4222C38.3621 97.2933 35.8788 94.2673 34.4123 90.727C32.9459 87.1867 32.5622 83.291 33.3098 79.5326C34.0574 75.7742 35.9027 72.3219 38.6123 69.6123C41.322 66.9027 44.7743 65.0574 48.5326 64.3098C52.291 63.5622 56.1867 63.9459 59.727 65.4123C63.2673 66.8788 66.2933 69.3621 68.4222 72.5483C70.5512 75.7345 71.6875 79.4805 71.6875 83.3125C71.6819 88.4493 69.6388 93.3742 66.0065 97.0065C62.3742 100.639 57.4493 102.682 52.3125 102.688Z" fill="#E8DEDE"/>
<path d="M66.7411 81.5784L43.4911 69.9534C43.1956 69.8058 42.8673 69.7361 42.5374 69.7511C42.2074 69.766 41.8867 69.8651 41.6058 70.0388C41.3249 70.2126 41.0931 70.4552 40.9324 70.7438C40.7717 71.0324 40.6874 71.3572 40.6875 71.6875V94.9375C40.6857 95.2686 40.7688 95.5947 40.9288 95.8846C41.0889 96.1744 41.3205 96.4185 41.6017 96.5933C41.8829 96.7682 42.2042 96.8681 42.5349 96.8835C42.8657 96.8989 43.1949 96.8293 43.4911 96.6813L66.7411 85.0563C67.0635 84.8956 67.3347 84.6482 67.5243 84.3419C67.7139 84.0355 67.8143 83.6824 67.8143 83.3222C67.8143 82.962 67.7139 82.6088 67.5243 82.3025C67.3347 81.9962 67.0635 81.7488 66.7411 81.5881V81.5784ZM44.5625 91.8026V74.8224L61.5428 83.3125L44.5625 91.8026Z" fill="#E8DEDE"/>
<path d="M93 102.688H73.625C73.1111 102.688 72.6183 102.892 72.255 103.255C71.8916 103.618 71.6875 104.111 71.6875 104.625V112.375C71.6875 112.889 71.8916 113.382 72.255 113.745C72.6183 114.108 73.1111 114.312 73.625 114.312H93C93.5139 114.312 94.0067 114.108 94.37 113.745C94.7334 113.382 94.9375 112.889 94.9375 112.375V104.625C94.9375 104.111 94.7334 103.618 94.37 103.255C94.0067 102.892 93.5139 102.688 93 102.688ZM91.0625 110.438H75.5625V106.562H91.0625V110.438Z" fill="#E8DEDE"/>
</svg>
