<svg width="14" height="18" viewBox="0 0 14 18" fill="none" xmlns="http://www.w3.org/2000/svg">
<path d="M11.0001 0.57135H3.00001C1.34381 0.57293 0.00158037 1.91516 0 3.57139V14.4286C0.00158037 16.0849 1.34381 17.4271 3.00004 17.4287H11.0001C12.6563 17.4271 13.9986 16.0849 14.0002 14.4286V3.57139C13.9985 1.91516 12.6563 0.57293 11.0001 0.57135ZM7.00006 13.38H3.57144C3.17694 13.38 2.85715 13.0602 2.85715 12.6657C2.85715 12.2712 3.17694 11.9514 3.57144 11.9514H7.00006C7.39456 11.9514 7.71436 12.2712 7.71436 12.6657C7.71436 13.0602 7.39456 13.38 7.00006 13.38ZM10.4287 9.76286H3.57144C3.17694 9.76286 2.85715 9.44306 2.85715 9.04856C2.85715 8.65406 3.17694 8.33427 3.57144 8.33427H10.4286C10.8231 8.33427 11.1429 8.65406 11.1429 9.04856C11.1429 9.44306 10.8231 9.76286 10.4287 9.76286ZM10.4287 6.04856H3.57144C3.17694 6.04856 2.85715 5.72876 2.85715 5.33426C2.85715 4.93976 3.17694 4.61997 3.57144 4.61997H10.4286C10.8231 4.61997 11.1429 4.93976 11.1429 5.33426C11.143 5.72873 10.8231 6.04856 10.4287 6.04856Z" fill="#4D4646"/>
</svg>
