<svg width="190" height="190" viewBox="0 0 190 190" fill="none" xmlns="http://www.w3.org/2000/svg">
<path fill-rule="evenodd" clip-rule="evenodd" d="M131.441 114.666H58.5588C55.6598 114.666 53.3008 112.308 53.3008 109.409V5.26362C53.3008 2.36462 55.6587 0.00668335 58.5588 0.00668335H115.842C116.433 0.00668335 116.999 0.241587 117.417 0.659069L136.047 19.2899C136.464 19.7074 136.699 20.2729 136.699 20.8641V109.409C136.699 112.307 134.339 114.666 131.44 114.666H131.441ZM58.5588 4.4576C58.1235 4.4576 57.7539 4.82498 57.7539 5.2625V109.407C57.7539 109.843 58.1235 110.211 58.5588 110.211H131.441C131.878 110.211 132.245 109.845 132.245 109.407L132.244 21.7848L114.92 4.4576H58.5588Z" fill="#DDD3D3"/>
<path fill-rule="evenodd" clip-rule="evenodd" d="M134.502 23.0895H115.84C114.611 23.0895 113.613 22.092 113.613 20.863V2.23325C113.613 0.258278 116.016 -0.741452 117.415 0.659061L135.84 19.0839C137.689 20.6915 136.392 23.0895 134.502 23.0895ZM118.069 18.6364H129.097L118.069 7.60819V18.6364Z" fill="#DDD3D3"/>
<path fill-rule="evenodd" clip-rule="evenodd" d="M94.9995 73.9801C83.0495 73.9801 73.3271 64.2577 73.3271 52.3077C73.3271 40.3577 83.0495 30.6354 94.9995 30.6354C106.949 30.6354 116.673 40.3577 116.673 52.3077C116.673 64.2577 106.949 73.9801 94.9995 73.9801ZM94.9995 35.0896C85.5043 35.0896 77.7803 42.8147 77.7803 52.3088C77.7803 61.804 85.5054 69.528 94.9995 69.528C104.494 69.528 112.219 61.8029 112.219 52.3088C112.219 42.8147 104.494 35.0896 94.9995 35.0896Z" fill="#E9CFC4"/>
<path fill-rule="evenodd" clip-rule="evenodd" d="M116.865 87.0434H73.135C70.2037 87.0434 70.2037 82.5902 73.135 82.5902H116.865C119.795 82.5902 119.796 87.0434 116.865 87.0434Z" fill="#E9CFC4"/>
<path fill-rule="evenodd" clip-rule="evenodd" d="M116.865 101.748H73.1351C70.205 101.748 70.205 97.2945 73.1351 97.2945H116.865C119.795 97.2945 119.796 101.748 116.865 101.748Z" fill="#E9CFC4"/>
<path fill-rule="evenodd" clip-rule="evenodd" d="M163.344 153.223H26.6541C21.297 153.223 16.9385 148.864 16.9385 143.505V42.3917C16.9385 37.0346 21.297 32.676 26.6541 32.676H55.5272C58.4585 32.676 58.4585 37.1292 55.5272 37.1292H26.6552C23.7529 37.1292 21.3927 39.4905 21.3927 42.3917V143.505C21.3927 146.407 23.7529 148.767 26.6552 148.767H163.346C166.248 148.767 168.607 146.407 168.607 143.505V42.3917C168.607 39.4893 166.247 37.1292 163.346 37.1292L134.474 37.1281C131.542 37.1281 131.543 32.6749 134.474 32.6749H163.346C168.704 32.6749 173.061 37.0334 173.061 42.3906V143.504C173.061 148.863 168.703 153.222 163.346 153.222L163.344 153.223Z" fill="#DDD3D3"/>
<path fill-rule="evenodd" clip-rule="evenodd" d="M125.378 170.443H64.6231C63.394 170.443 62.3965 169.444 62.3965 168.216V150.995C62.3965 149.766 63.394 148.768 64.6231 148.768H125.381C126.61 148.768 127.607 149.767 127.607 150.995V168.216C127.607 169.444 126.609 170.443 125.38 170.443H125.378ZM66.8485 165.989H123.152V153.221L66.8485 153.223V165.989Z" fill="#DDD3D3"/>
<path fill-rule="evenodd" clip-rule="evenodd" d="M170.835 131.174H19.1654C16.2352 131.174 16.2352 126.721 19.1654 126.721H170.835C173.765 126.721 173.765 131.174 170.835 131.174Z" fill="#DDD3D3"/>
<path fill-rule="evenodd" clip-rule="evenodd" d="M156.725 131.174H33.2774C32.0483 131.174 31.0508 130.175 31.0508 128.947V48.262C31.0508 47.033 32.0483 46.0355 33.2774 46.0355H55.5297C58.461 46.0355 58.461 50.4886 55.5297 50.4886H35.5039V126.72H154.497V50.4875H134.474C131.543 50.4875 131.544 46.0344 134.474 46.0344H156.726C157.955 46.0344 158.953 47.0319 158.953 48.2609V128.946C158.953 130.175 157.955 131.174 156.726 131.174H156.725Z" fill="#DDD3D3"/>
<path fill-rule="evenodd" clip-rule="evenodd" d="M139.516 189.996H50.4815C49.2524 189.996 48.2549 188.997 48.2549 187.769V168.216C48.2549 166.987 49.2524 165.99 50.4815 165.99H139.516C140.746 165.99 141.743 166.988 141.743 168.216V187.769C141.743 188.998 140.746 189.996 139.516 189.996ZM52.7058 185.542H137.289V170.443H52.7058V185.542Z" fill="#DDD3D3"/>
<path fill-rule="evenodd" clip-rule="evenodd" d="M105.061 142.199H84.9388C82.0087 142.199 82.0087 137.746 84.9388 137.746H105.061C107.992 137.746 107.993 142.199 105.061 142.199Z" fill="#DDD3D3"/>
<path fill-rule="evenodd" clip-rule="evenodd" d="M89.1901 58.9607C87.1416 58.9607 85.6342 55.0731 83.7784 51.9081C82.2966 49.3787 86.1374 47.1298 87.6192 49.657L89.9816 53.6893L103.175 45.9598C105.702 44.4813 107.956 48.3199 105.424 49.8039C103.278 51.062 90.5149 58.9618 89.1901 58.9618V58.9607Z" fill="#E9CFC4"/>
</svg>
