<svg width="114" height="122" viewBox="0 0 114 122" fill="none" xmlns="http://www.w3.org/2000/svg">
<path d="M41.5 101.688H60.875V105.562H41.5V101.688Z" fill="#E8DEDE"/>
<path d="M113.188 64.875C113.188 55.1333 103.06 47.0713 89.9375 45.7209V10.625C89.9344 8.05666 88.9128 5.59439 87.0967 3.7783C85.2806 1.96221 82.8183 0.940576 80.25 0.9375H22.125C19.5567 0.940576 17.0944 1.96221 15.2783 3.7783C13.4622 5.59439 12.4406 8.05666 12.4375 10.625V30H6.625C5.08343 30 3.605 30.6124 2.51494 31.7024C1.42489 32.7925 0.8125 34.2709 0.8125 35.8125V93.9375C0.8125 94.4514 1.01663 94.9442 1.37998 95.3075C1.74333 95.6709 2.23614 95.875 2.75 95.875H12.4375V111.375C12.4406 113.943 13.4622 116.406 15.2783 118.222C17.0944 120.038 19.5567 121.059 22.125 121.062H80.25C82.8183 121.059 85.2806 120.038 87.0967 118.222C88.9128 116.406 89.9344 113.943 89.9375 111.375V84.0291C103.06 82.6787 113.188 74.6148 113.188 64.875ZM16.3125 10.625C16.3125 9.08343 16.9249 7.605 18.0149 6.51494C19.105 5.42489 20.5834 4.8125 22.125 4.8125H80.25C81.7916 4.8125 83.27 5.42489 84.3601 6.51494C85.4501 7.605 86.0625 9.08343 86.0625 10.625V45.5C84.7679 45.5074 83.4746 45.5812 82.1875 45.7209V12.5625C82.1875 11.5348 81.7792 10.5492 81.0525 9.82246C80.3258 9.09576 79.3402 8.6875 78.3125 8.6875H62.8125C61.7848 8.6875 60.7992 9.09576 60.0725 9.82246C59.3458 10.5492 58.9375 11.5348 58.9375 12.5625C58.9375 13.0764 58.7334 13.5692 58.37 13.9325C58.0067 14.2959 57.5139 14.5 57 14.5H45.375C44.8611 14.5 44.3683 14.2959 44.005 13.9325C43.6416 13.5692 43.4375 13.0764 43.4375 12.5625C43.4375 11.5348 43.0292 10.5492 42.3025 9.82246C41.5758 9.09576 40.5902 8.6875 39.5625 8.6875H24.0625C23.0348 8.6875 22.0492 9.09576 21.3225 9.82246C20.5958 10.5492 20.1875 11.5348 20.1875 12.5625V30H16.3125V10.625ZM65.1763 87.4004C65.4081 87.6891 65.7178 87.9053 66.0688 88.0234C66.4197 88.1415 66.7971 88.1566 67.1564 88.0669L78.3125 85.2769V109.438H24.0625V95.875H49.25C49.7639 95.875 50.2567 95.6709 50.62 95.3075C50.9834 94.9442 51.1875 94.4514 51.1875 93.9375V53.25H57C57.5139 53.25 58.0067 53.0459 58.37 52.6825C58.7334 52.3192 58.9375 51.8264 58.9375 51.3125V35.8125C58.9375 34.2709 58.3251 32.7925 57.2351 31.7024C56.145 30.6124 54.6666 30 53.125 30H24.0625V12.5625H39.5625C39.5625 14.1041 40.1749 15.5825 41.2649 16.6726C42.355 17.7626 43.8334 18.375 45.375 18.375H57C58.5416 18.375 60.02 17.7626 61.1101 16.6726C62.2001 15.5825 62.8125 14.1041 62.8125 12.5625H78.3125V46.3157C67.1234 48.7046 58.9375 56.1156 58.9375 64.875C58.9375 70.4821 62.1983 75.6707 67.9488 79.3307L64.9437 85.3214C64.7795 85.6539 64.7141 86.0265 64.7553 86.395C64.7965 86.7635 64.9426 87.1124 65.1763 87.4004V87.4004ZM51.1875 49.375V35.8125C51.1875 35.2986 51.3916 34.8058 51.755 34.4425C52.1183 34.0791 52.6111 33.875 53.125 33.875C53.6389 33.875 54.1317 34.0791 54.495 34.4425C54.8584 34.8058 55.0625 35.2986 55.0625 35.8125V49.375H51.1875ZM4.6875 35.8125C4.6875 35.2986 4.89163 34.8058 5.25498 34.4425C5.61833 34.0791 6.11114 33.875 6.625 33.875H47.6438C47.4245 34.4974 47.3125 35.1526 47.3125 35.8125V92H4.6875V35.8125ZM86.0625 111.375C86.0625 112.917 85.4501 114.395 84.3601 115.485C83.27 116.575 81.7916 117.188 80.25 117.188H22.125C20.5834 117.188 19.105 116.575 18.0149 115.485C16.9249 114.395 16.3125 112.917 16.3125 111.375V95.875H20.1875V109.438C20.1875 110.465 20.5958 111.451 21.3225 112.178C22.0492 112.904 23.0348 113.312 24.0625 113.312H78.3125C79.3402 113.312 80.3258 112.904 81.0525 112.178C81.7792 111.451 82.1875 110.465 82.1875 109.438V84.3101L82.9315 84.1163C83.9564 84.1996 85.0085 84.2422 86.0625 84.2422V111.375ZM86.0625 80.375C85.0124 80.375 83.9661 80.3285 82.9625 80.2355C82.7462 80.2141 82.5277 80.2312 82.3173 80.2859L70.3048 83.2812L72.2229 79.4411C72.4473 78.9922 72.4886 78.4736 72.3383 77.9948C72.1879 77.5159 71.8576 77.1141 71.4169 76.8739C65.9493 73.8979 62.8125 69.525 62.8125 64.875C62.8125 56.3287 73.2421 49.375 86.0625 49.375C98.8829 49.375 109.312 56.3287 109.312 64.875C109.312 73.4213 98.8829 80.375 86.0625 80.375Z" fill="#E8DEDE"/>
<path d="M76.4062 61.8125C75.8314 61.8125 75.2696 61.9829 74.7916 62.3023C74.3137 62.6216 73.9412 63.0755 73.7212 63.6066C73.5013 64.1376 73.4437 64.722 73.5558 65.2857C73.668 65.8495 73.9448 66.3673 74.3512 66.7738C74.7577 67.1802 75.2755 67.457 75.8393 67.5692C76.403 67.6813 76.9874 67.6237 77.5184 67.4038C78.0495 67.1838 78.5034 66.8113 78.8227 66.3334C79.142 65.8554 79.3125 65.2936 79.3125 64.7188C79.3125 63.948 79.0063 63.2087 78.4613 62.6637C77.9163 62.1187 77.177 61.8125 76.4062 61.8125Z" fill="#E8DEDE"/>
<path d="M86.0937 61.8125C85.5189 61.8125 84.9571 61.9829 84.4791 62.3023C84.0012 62.6216 83.6287 63.0755 83.4087 63.6066C83.1888 64.1376 83.1312 64.722 83.2433 65.2857C83.3555 65.8495 83.6323 66.3673 84.0387 66.7738C84.4452 67.1802 84.963 67.457 85.5268 67.5692C86.0905 67.6813 86.6749 67.6237 87.2059 67.4038C87.737 67.1838 88.1909 66.8113 88.5102 66.3334C88.8295 65.8554 89 65.2936 89 64.7188C89 63.948 88.6938 63.2087 88.1488 62.6637C87.6038 62.1187 86.8645 61.8125 86.0937 61.8125Z" fill="#E8DEDE"/>
<path d="M95.7812 61.8125C95.2064 61.8125 94.6446 61.9829 94.1666 62.3023C93.6887 62.6216 93.3162 63.0755 93.0962 63.6066C92.8763 64.1376 92.8187 64.722 92.9308 65.2857C93.043 65.8495 93.3198 66.3673 93.7262 66.7738C94.1327 67.1802 94.6505 67.457 95.2143 67.5692C95.778 67.6813 96.3624 67.6237 96.8934 67.4038C97.4245 67.1838 97.8784 66.8113 98.1977 66.3334C98.517 65.8554 98.6875 65.2936 98.6875 64.7188C98.6875 63.948 98.3813 63.2087 97.8363 62.6637C97.2913 62.1187 96.552 61.8125 95.7812 61.8125V61.8125Z" fill="#E8DEDE"/>
<path d="M16.3125 41.625H43.4375V45.5H16.3125V41.625Z" fill="#E8DEDE"/>
<path d="M8.5625 49.375H43.4375V53.25H8.5625V49.375Z" fill="#E8DEDE"/>
<path d="M8.5625 57.125H43.4375V61H8.5625V57.125Z" fill="#E8DEDE"/>
<path d="M8.5625 64.875H43.4375V68.75H8.5625V64.875Z" fill="#E8DEDE"/>
<path d="M8.5625 72.625H43.4375V76.5H8.5625V72.625Z" fill="#E8DEDE"/>
</svg>
