<svg width="16" height="12" viewBox="0 0 16 12" fill="none" xmlns="http://www.w3.org/2000/svg">
<path d="M7.0625 0.375H15.5L15.1875 1L15.5 1.625V2.875L15.1875 3.5L15.5 4.125V5.375L15.1875 6L15.5 6.625V7.875L15.1875 8.5L15.5 9.125V10.375L15.1875 11L15.5 11.625H0.5L0.8125 11L0.5 10.375V9.125L0.8125 8.5L0.5 7.875V6.625L0.8125 6L0.5 5.375L7.0625 0.375Z" fill="#D82C0D"/>
<path d="M0.5 10.375H15.5V11.625H0.5V10.375Z" fill="white"/>
<path d="M0.5 7.875H15.5V9.125H0.5V7.875Z" fill="white"/>
<path d="M0.5 5.375H15.5V6.625H0.5V5.375Z" fill="white"/>
<path d="M7.0625 2.875H15.5V4.125H7.0625V2.875Z" fill="white"/>
<path d="M7.0625 0.375H15.5V1.625H7.0625V0.375Z" fill="white"/>
<path d="M0.5 0.375H7.0625V5.375H0.5V0.375Z" fill="#1062BF"/>
<path d="M1.59902 0.667812L1.69824 0.973187H2.01934L1.75955 1.16194L1.8588 1.46731L1.59902 1.27856L1.33924 1.46731L1.43849 1.16194L1.17871 0.973187H1.4998L1.59902 0.667812Z" fill="white"/>
<path d="M3.0541 0.667812L3.15332 0.973187H3.47441L3.21463 1.16194L3.31388 1.46731L3.0541 1.27856L2.79435 1.46731L2.89357 1.16194L2.63379 0.973187H2.95488L3.0541 0.667812Z" fill="white"/>
<path d="M4.5082 0.667812L4.60742 0.973187H4.92852L4.66877 1.16194L4.76798 1.46731L4.5082 1.27856L4.24845 1.46731L4.34767 1.16194L4.08789 0.973187H4.40898L4.5082 0.667812Z" fill="white"/>
<path d="M5.96328 0.667812L6.0625 0.973187H6.38359L6.12384 1.16194L6.22306 1.46731L5.96328 1.27856L5.70353 1.46731L5.80275 1.16194L5.54297 0.973187H5.86406L5.96328 0.667812Z" fill="white"/>
<path d="M1.59902 1.87278L1.69824 2.17815H2.01934L1.75955 2.36687L1.8588 2.67225L1.59902 2.48353L1.33924 2.67225L1.43849 2.36687L1.17871 2.17815H1.4998L1.59902 1.87278Z" fill="white"/>
<path d="M3.0541 1.87278L3.15332 2.17816H3.47441L3.21463 2.36688L3.31388 2.67225L3.0541 2.48353L2.79435 2.67225L2.89357 2.36688L2.63379 2.17816H2.95488L3.0541 1.87278Z" fill="white"/>
<path d="M4.5082 1.87278L4.60742 2.17815H4.92852L4.66877 2.36687L4.76798 2.67225L4.5082 2.48353L4.24845 2.67225L4.34767 2.36687L4.08789 2.17815H4.40898L4.5082 1.87278Z" fill="white"/>
<path d="M5.96328 1.87278L6.0625 2.17815H6.38359L6.12384 2.36687L6.22306 2.67225L5.96328 2.48353L5.70353 2.67225L5.80275 2.36687L5.54297 2.17815H5.86406L5.96328 1.87278Z" fill="white"/>
<path d="M1.59902 3.07775L1.69824 3.38313H2.01934L1.75955 3.57184L1.8588 3.87722L1.59902 3.6885L1.33924 3.87722L1.43849 3.57184L1.17871 3.38313H1.4998L1.59902 3.07775Z" fill="white"/>
<path d="M3.0541 3.07774L3.15332 3.38312H3.47441L3.21463 3.57184L3.31388 3.87721L3.0541 3.68849L2.79435 3.87721L2.89357 3.57184L2.63379 3.38312H2.95488L3.0541 3.07774Z" fill="white"/>
<path d="M4.5082 3.07775L4.60742 3.38313H4.92852L4.66877 3.57184L4.76798 3.87722L4.5082 3.6885L4.24845 3.87722L4.34767 3.57184L4.08789 3.38313H4.40898L4.5082 3.07775Z" fill="white"/>
<path d="M5.96328 3.07775L6.0625 3.38313H6.38359L6.12384 3.57184L6.22306 3.87722L5.96328 3.6885L5.70353 3.87722L5.80275 3.57184L5.54297 3.38313H5.86406L5.96328 3.07775Z" fill="white"/>
<path d="M1.59902 4.28268L1.69824 4.58806H2.01934L1.75955 4.77681L1.8588 5.08218L1.59902 4.89343L1.33924 5.08218L1.43849 4.77681L1.17871 4.58806H1.4998L1.59902 4.28268Z" fill="white"/>
<path d="M3.0541 4.28268L3.15332 4.58806H3.47441L3.21463 4.77681L3.31388 5.08218L3.0541 4.89343L2.79435 5.08218L2.89357 4.77681L2.63379 4.58806H2.95488L3.0541 4.28268Z" fill="white"/>
<path d="M4.5082 4.28268L4.60742 4.58806H4.92852L4.66877 4.77681L4.76798 5.08218L4.5082 4.89343L4.24845 5.08218L4.34767 4.77681L4.08789 4.58806H4.40898L4.5082 4.28268Z" fill="white"/>
<path d="M5.96328 4.28268L6.0625 4.58806H6.38359L6.12384 4.77681L6.22306 5.08218L5.96328 4.89343L5.70353 5.08218L5.80275 4.77681L5.54297 4.58806H5.86406L5.96328 4.28268Z" fill="white"/>
</svg>
